<svg xmlns="http://www.w3.org/2000/svg" width="126" height="35" viewBox="0 0 126 35">
  <g fill="none" fill-rule="evenodd">
    <path fill="#7F2346" d="M42.624 26.83C42.624 26.713 42.589 26.655 42.46 26.655L41.969 26.655C41.852 26.655 41.805 26.713 41.805 26.83L41.805 34.431C41.805 34.548 41.852 34.606 41.969 34.606L42.46 34.606C42.589 34.606 42.624 34.548 42.624 34.431L42.624 30.748 46.027 30.748 46.027 34.431C46.027 34.548 46.073 34.606 46.19 34.606L46.693 34.606C46.81 34.606 46.857 34.548 46.857 34.431L46.857 26.83C46.857 26.713 46.81 26.655 46.693 26.655L46.19 26.655C46.073 26.655 46.027 26.713 46.027 26.83L46.027 30.046 42.624 30.046 42.624 26.83zM49.513 29.005C49.513 28.888 49.467 28.83 49.35 28.83L48.882 28.83C48.753 28.83 48.707 28.888 48.707 29.005L48.707 34.431C48.707 34.548 48.753 34.606 48.882 34.606L49.35 34.606C49.467 34.606 49.513 34.548 49.513 34.431L49.513 29.005zM49.513 26.608C49.513 26.491 49.467 26.433 49.35 26.433L48.882 26.433C48.753 26.433 48.707 26.491 48.707 26.608L48.707 27.696C48.707 27.813 48.753 27.871 48.882 27.871L49.35 27.871C49.467 27.871 49.513 27.813 49.513 27.696L49.513 26.608zM55.42 30.245C55.42 29.344 54.905 28.736 53.303 28.736 51.69 28.736 51.152 29.344 51.152 30.245L51.152 33.192C51.152 34.092 51.678 34.7 53.28 34.7 54.893 34.7 55.42 34.092 55.42 33.192L55.42 32.946C55.42 32.829 55.361 32.782 55.244 32.782L54.823 32.782C54.706 32.782 54.66 32.829 54.66 32.946L54.66 33.145C54.66 33.683 54.379 34.045 53.303 34.045 52.227 34.045 51.947 33.683 51.947 33.145L51.947 31.847 55.256 31.847C55.373 31.847 55.42 31.788 55.42 31.683L55.42 30.245zM51.947 30.292C51.947 29.765 52.251 29.391 53.303 29.391 54.332 29.391 54.66 29.765 54.66 30.292L54.66 31.227 51.947 31.227 51.947 30.292zM59.702 28.736C58.836 28.736 58.123 29.274 57.796 29.578L57.761 29.005C57.749 28.888 57.714 28.83 57.585 28.83L57.164 28.83C57.035 28.83 56.989 28.888 56.989 29.005L56.989 34.431C56.989 34.548 57.035 34.606 57.164 34.606L57.632 34.606C57.749 34.606 57.796 34.548 57.796 34.431L57.796 30.256C58.076 30.023 58.825 29.508 59.702 29.473 59.819 29.473 59.889 29.415 59.889 29.298L59.889 28.912C59.889 28.795 59.819 28.736 59.702 28.736zM70.167 29.005C70.202 28.9 70.144 28.83 70.027 28.83L69.629 28.83C69.512 28.83 69.465 28.9 69.43 29.005L68.343 33.075C68.273 33.308 68.226 33.507 68.226 33.531L68.121 33.075 67.068 29.005C67.045 28.9 66.986 28.83 66.881 28.83L66.378 28.83C66.261 28.83 66.215 28.9 66.179 29.005L65.057 33.075C64.998 33.285 64.94 33.507 64.94 33.542 64.928 33.507 64.893 33.273 64.846 33.075L63.747 29.005C63.724 28.9 63.665 28.83 63.56 28.83L63.093 28.83C62.964 28.83 62.894 28.9 62.929 29.005L64.402 34.443C64.437 34.56 64.472 34.606 64.589 34.606L65.127 34.606C65.244 34.606 65.279 34.548 65.314 34.443L66.437 30.502 66.577 29.941C66.589 29.999 66.635 30.28 66.694 30.49L67.723 34.443C67.746 34.548 67.793 34.606 67.91 34.606L68.471 34.606C68.577 34.606 68.612 34.56 68.647 34.443L70.167 29.005zM71.335 33.192C71.335 34.092 71.931 34.7 73.533 34.7 75.135 34.7 75.743 34.092 75.743 33.192L75.743 30.245C75.743 29.344 75.135 28.736 73.533 28.736 71.931 28.736 71.335 29.344 71.335 30.245L71.335 33.192zM74.937 33.133C74.937 33.683 74.574 34.033 73.533 34.033 72.504 34.033 72.142 33.683 72.142 33.133L72.142 30.303C72.142 29.754 72.504 29.403 73.533 29.403 74.574 29.403 74.937 29.754 74.937 30.303L74.937 33.133zM78.187 26.608C78.187 26.491 78.14 26.433 78.023 26.433L77.556 26.433C77.427 26.433 77.38 26.491 77.38 26.608L77.38 34.431C77.38 34.548 77.427 34.606 77.556 34.606L78.023 34.606C78.14 34.606 78.187 34.548 78.187 34.431L78.187 30.116C78.456 29.906 79.087 29.461 79.953 29.461 80.701 29.461 80.982 29.824 80.982 30.35L80.982 34.431C80.982 34.548 81.04 34.606 81.157 34.606L81.625 34.606C81.742 34.606 81.789 34.548 81.789 34.431L81.789 30.175C81.789 29.344 81.262 28.736 80.175 28.736 79.193 28.736 78.526 29.146 78.187 29.426L78.187 26.608zM84.07 28.83L83.649 28.83C83.52 28.83 83.474 28.888 83.474 29.005L83.474 34.431C83.474 34.548 83.52 34.606 83.649 34.606L84.117 34.606C84.234 34.606 84.28 34.548 84.28 34.431L84.28 30.116C84.549 29.906 85.181 29.461 86.046 29.461 86.794 29.461 87.075 29.824 87.075 30.35L87.075 34.431C87.075 34.548 87.133 34.606 87.25 34.606L87.718 34.606C87.835 34.606 87.882 34.548 87.882 34.431L87.882 30.175C87.882 29.344 87.356 28.736 86.268 28.736 85.274 28.736 84.596 29.169 84.269 29.45L84.245 29.005C84.234 28.888 84.199 28.83 84.07 28.83zM90.862 28.853L90.862 27.614C90.862 27.497 90.816 27.438 90.699 27.438L90.219 27.438C90.102 27.438 90.044 27.497 90.044 27.614L90.044 28.853 89.95 28.853 89.342 28.888C89.225 28.9 89.178 28.947 89.178 29.064L89.178 29.344C89.178 29.461 89.225 29.52 89.342 29.52L90.044 29.52 90.044 33.098C90.044 34.045 90.512 34.606 92.114 34.606L92.418 34.606C92.535 34.606 92.593 34.56 92.593 34.431L92.593 34.092C92.593 33.963 92.535 33.916 92.418 33.916L92.219 33.916C91.178 33.916 90.862 33.566 90.862 33.016L90.862 29.52 92.172 29.52C92.289 29.52 92.347 29.461 92.347 29.344L92.347 29.017C92.347 28.9 92.289 28.853 92.172 28.853L90.862 28.853zM99.106 34.606C101.047 34.606 101.643 33.858 101.643 32.923L101.643 31.882C101.643 31.169 101.211 30.654 100.264 30.444 101.035 30.186 101.316 29.695 101.316 29.064L101.316 28.292C101.316 27.368 100.72 26.655 98.79 26.655L96.779 26.655C96.662 26.655 96.615 26.713 96.615 26.83L96.615 34.431C96.615 34.548 96.662 34.606 96.779 34.606L99.106 34.606zM99.106 30.841C100.357 30.841 100.813 31.286 100.813 31.929L100.813 32.794C100.813 33.472 100.357 33.916 99.106 33.916L97.434 33.916 97.434 30.841 99.106 30.841zM98.79 27.345C100.03 27.345 100.497 27.731 100.497 28.421L100.497 29.052C100.497 29.73 100.041 30.186 98.907 30.186L97.434 30.186 97.434 27.345 98.79 27.345zM107.491 30.245C107.491 29.344 106.977 28.736 105.375 28.736 103.761 28.736 103.223 29.344 103.223 30.245L103.223 33.192C103.223 34.092 103.749 34.7 105.351 34.7 106.965 34.7 107.491 34.092 107.491 33.192L107.491 32.946C107.491 32.829 107.433 32.782 107.316 32.782L106.895 32.782C106.778 32.782 106.731 32.829 106.731 32.946L106.731 33.145C106.731 33.683 106.45 34.045 105.375 34.045 104.299 34.045 104.018 33.683 104.018 33.145L104.018 31.847 107.327 31.847C107.444 31.847 107.491 31.788 107.491 31.683L107.491 30.245zM104.018 30.292C104.018 29.765 104.322 29.391 105.375 29.391 106.404 29.391 106.731 29.765 106.731 30.292L106.731 31.227 104.018 31.227 104.018 30.292zM111.773 28.736C110.908 28.736 110.194 29.274 109.867 29.578L109.832 29.005C109.82 28.888 109.785 28.83 109.657 28.83L109.236 28.83C109.107 28.83 109.06 28.888 109.06 29.005L109.06 34.431C109.06 34.548 109.107 34.606 109.236 34.606L109.703 34.606C109.82 34.606 109.867 34.548 109.867 34.431L109.867 30.256C110.148 30.023 110.896 29.508 111.773 29.473 111.89 29.473 111.96 29.415 111.96 29.298L111.96 28.912C111.96 28.795 111.89 28.736 111.773 28.736zM114.093 26.608C114.093 26.491 114.046 26.433 113.929 26.433L113.461 26.433C113.333 26.433 113.286 26.491 113.286 26.608L113.286 34.431C113.286 34.548 113.333 34.606 113.461 34.606L113.929 34.606C114.046 34.606 114.093 34.548 114.093 34.431L114.093 26.608zM116.615 29.005C116.615 28.888 116.568 28.83 116.451 28.83L115.984 28.83C115.855 28.83 115.808 28.888 115.808 29.005L115.808 34.431C115.808 34.548 115.855 34.606 115.984 34.606L116.451 34.606C116.568 34.606 116.615 34.548 116.615 34.431L116.615 29.005zM116.615 26.608C116.615 26.491 116.568 26.433 116.451 26.433L115.984 26.433C115.855 26.433 115.808 26.491 115.808 26.608L115.808 27.696C115.808 27.813 115.855 27.871 115.984 27.871L116.451 27.871C116.568 27.871 116.615 27.813 116.615 27.696L116.615 26.608zM118.927 28.83L118.506 28.83C118.377 28.83 118.33 28.888 118.33 29.005L118.33 34.431C118.33 34.548 118.377 34.606 118.506 34.606L118.973 34.606C119.09 34.606 119.137 34.548 119.137 34.431L119.137 30.116C119.406 29.906 120.038 29.461 120.903 29.461 121.651 29.461 121.932 29.824 121.932 30.35L121.932 34.431C121.932 34.548 121.99 34.606 122.107 34.606L122.575 34.606C122.692 34.606 122.739 34.548 122.739 34.431L122.739 30.175C122.739 29.344 122.213 28.736 121.125 28.736 120.131 28.736 119.453 29.169 119.125 29.45L119.102 29.005C119.09 28.888 119.055 28.83 118.927 28.83zM125.291 33.519C125.291 33.402 125.244 33.344 125.128 33.344L124.636 33.344C124.508 33.344 124.461 33.402 124.461 33.519L124.461 34.431C124.461 34.56 124.508 34.606 124.636 34.606L125.128 34.606C125.244 34.606 125.291 34.56 125.291 34.431L125.291 33.519 125.291 33.519zM8.371 10.657C7.804 10.657 7.551 10.846 7.551 11.414L7.551 13.433C7.551 14 7.804 14.19 8.371 14.19L11.463 14.19 11.463 16.303C11.463 17.849 9.873 18.638 7.76 18.638 5.646 18.638 4.574 17.849 4.574 16.272L4.574 6.276C4.574 4.699 5.646 3.748 7.76 3.748 9.873 3.748 11.463 4.537 11.463 6.114L11.463 6.619C11.463 7.155 11.684 7.407 12.251 7.407L14.87 7.407C15.406 7.407 15.595 7.155 15.595 6.619L15.595 5.357C15.595 2.707 13.406.215 7.697.215 1.987.215.284 2.869.284 5.519L.284 17.029C.284 19.679 1.987 22.171 7.697 22.171 13.406 22.171 15.595 19.679 15.595 17.029L15.595 11.414C15.595 10.846 15.343 10.657 14.807 10.657L8.371 10.657M32.012 21.048L32.012 19.061C32.012 18.493 31.792 18.304 31.224 18.304L23.621 18.304 23.621 11.319 30.372 11.319C30.94 11.319 31.192 11.098 31.192 10.562L31.192 8.669C31.192 8.101 30.94 7.912 30.372 7.912L19.363 7.911 19.363 21.017C19.363 21.585 19.552 21.837 20.12 21.837L31.224 21.837C31.792 21.837 32.012 21.616 32.012 21.048"/>
    <path fill="#F93649" d="M31.697,3.131 L31.697,1.143 C31.697,0.576 31.444,0.386 30.908,0.386 L20.12,0.386 C19.552,0.386 19.363,0.639 19.363,1.206 L19.363,3.915 L30.908,3.919 C31.444,3.919 31.697,3.698 31.697,3.131"/>
    <path fill="#7F2346" d="M45.577 6.569C45.577 7.105 45.766 7.358 46.302 7.358L48.952 7.358C49.52 7.358 49.741 7.105 49.741 6.569L49.741 5.276C49.741 2.626 47.974.134 42.454.134 36.933.134 35.293 2.626 35.293 5.276L35.293 7.137C35.293 9.03 36.649 10.638 38.164 11.206L43.053 13.036C44.473 13.572 45.734 14.077 45.734 15.37L45.734 16.38C45.734 17.925 44.504 18.651 42.391 18.651 40.245 18.651 39.047 17.925 39.047 16.38L39.047 14.96C39.047 14.392 38.857 14.14 38.29 14.14L35.64 14.14C35.104 14.14 34.883 14.392 34.883 14.96L34.883 16.947C34.883 19.597 36.807 22.089 42.422 22.089 48.069 22.089 49.93 19.597 49.93 16.947L49.93 14.518C49.93 12.184 48.353 10.733 46.208 9.976L40.719 8.02C40.214 7.831 39.425 7.421 39.425 6.317L39.425 5.844C39.425 4.298 40.466 3.572 42.517 3.572 44.536 3.572 45.577 4.298 45.577 5.844L45.577 6.569M68.541 16.947L68.541 5.276C68.541 2.626 66.586.134 60.876.134 55.166.134 53.21 2.626 53.21 5.276L53.21 16.947C53.21 19.597 55.166 22.089 60.876 22.089 66.586 22.089 68.541 19.597 68.541 16.947zM64.283 16.19C64.283 17.768 62.989 18.556 60.876 18.556 58.762 18.556 57.5 17.768 57.5 16.19L57.5 6.033C57.5 4.456 58.762 3.667 60.876 3.667 62.989 3.667 64.283 4.456 64.283 6.033L64.283 16.19 64.283 16.19zM87.784 16.853L87.784 14.361C87.784 12.626 86.585 11.301 84.44 10.544 86.08 9.787 86.806 8.556 86.806 7.011L86.806 5.15C86.806 2.5 84.882.386 79.172.386L73.399.386C72.831.386 72.642.639 72.642 1.206L72.642 21.017C72.642 21.585 72.831 21.837 73.399 21.837L80.15 21.837C85.859 21.837 87.784 19.503 87.784 16.853zM82.579 6.916C82.579 8.525 81.286 9.282 79.267 9.282L76.901 9.282 76.901 3.793 79.172 3.793C81.286 3.793 82.579 4.235 82.579 5.812L82.579 6.916zM83.588 16.096C83.588 17.673 82.263 18.43 80.15 18.43L76.901 18.43 76.901 12.5 80.15 12.5C82.263 12.5 83.588 13.32 83.588 14.676L83.588 16.096 83.588 16.096zM112.452 1.206C112.452.639 112.231.386 111.695.386L108.951.386C108.383.386 108.162.639 108.162 1.206L108.162 16.947C108.162 19.597 110.118 22.089 115.828 22.089 121.537 22.089 123.493 19.597 123.493 16.947L123.493 1.206C123.493.639 123.335.386 122.768.386L120.023.386C119.455.386 119.266.639 119.266 1.206L119.266 16.19C119.266 17.768 117.941 18.556 115.828 18.556 113.714 18.556 112.452 17.768 112.452 16.19L112.452 1.206M89.472 21.024C89.314 21.529 89.503 21.814 90.072 21.814L92.629 21.814C93.198 21.814 93.419 21.529 93.576 21.024L94.213 18.588 100.909 18.588 101.66 21.024C101.817 21.529 102.038 21.814 102.575 21.814L105.417 21.814C105.954 21.814 106.143 21.529 105.985 21.024L104.235 15.222 91.185 15.222 89.472 21.024"/>
    <path fill="#F93649" d="M103.268,11.277 L100.107,1.132 C99.949,0.595 99.665,0.343 99.096,0.343 L96.349,0.343 C95.781,0.343 95.529,0.595 95.371,1.132 L92.193,11.277 L96.155,11.277 C96.759,8.582 97.604,4.804 97.644,4.542 C97.664,4.804 98.471,8.582 99.051,11.277 L103.268,11.277"/>
  </g>
</svg>
