<?xml version="1.0" encoding="UTF-8" standalone="no"?>
<!-- Created with Inkscape (http://www.inkscape.org/) -->

<svg
   xmlns:dc="http://purl.org/dc/elements/1.1/"
   xmlns:cc="http://creativecommons.org/ns#"
   xmlns:rdf="http://www.w3.org/1999/02/22-rdf-syntax-ns#"
   xmlns:svg="http://www.w3.org/2000/svg"
   xmlns="http://www.w3.org/2000/svg"
   xmlns:sodipodi="http://sodipodi.sourceforge.net/DTD/sodipodi-0.dtd"
   xmlns:inkscape="http://www.inkscape.org/namespaces/inkscape"
   id="svg4155"
   version="1.1"
   inkscape:version="0.91 r13725"
   xml:space="preserve"
   width="655.98749"
   height="177.16251"
   viewBox="0 0 655.98749 177.16251"
   sodipodi:docname="MV_logo.svg"><metadata
     id="metadata4161"><rdf:RDF><cc:Work
         rdf:about=""><dc:format>image/svg+xml</dc:format><dc:type
           rdf:resource="http://purl.org/dc/dcmitype/StillImage" /><dc:title></dc:title></cc:Work></rdf:RDF></metadata><defs
     id="defs4159" /><sodipodi:namedview
     pagecolor="#ffffff"
     bordercolor="#666666"
     borderopacity="1"
     objecttolerance="10"
     gridtolerance="10"
     guidetolerance="10"
     inkscape:pageopacity="0"
     inkscape:pageshadow="2"
     inkscape:window-width="1920"
     inkscape:window-height="1056"
     id="namedview4157"
     showgrid="false"
     inkscape:zoom="1.9314393"
     inkscape:cx="327.99374"
     inkscape:cy="88.581253"
     inkscape:window-x="0"
     inkscape:window-y="24"
     inkscape:window-maximized="1"
     inkscape:current-layer="g4163" /><g
     id="g4163"
     inkscape:groupmode="layer"
     inkscape:label="ink_ext_XXXXXX"
     transform="matrix(1.25,0,0,-1.25,0,177.1625)"><g
       id="g4165"
       transform="scale(0.1,0.1)"><path
         d="m 2276.77,1285.41 c 0,-21.36 -17.3,-38.65 -38.64,-38.65 -21.31,0 -38.61,17.29 -38.61,38.65 0,21.35 17.3,38.65 38.61,38.65 21.34,0 38.64,-17.3 38.64,-38.65"
         style="fill:#231f20;fill-opacity:1;fill-rule:evenodd;stroke:none"
         id="path4167"
         inkscape:connector-curvature="0" /><path
         d="m 2398.29,1285.45 c 0,-21.38 -17.3,-38.67 -38.63,-38.67 -21.33,0 -38.61,17.29 -38.61,38.67 0,21.35 17.28,38.66 38.61,38.66 21.33,0 38.63,-17.31 38.63,-38.66"
         style="fill:#231f20;fill-opacity:1;fill-rule:evenodd;stroke:none"
         id="path4169"
         inkscape:connector-curvature="0" /><path
         d="m 1653.45,784.68 0,425.2 c 0,0 18.43,0 18.6,0 0,0 148.9,-182.54 180.66,-221.677 l 3.14,-3.902 3.16,3.902 c 29.29,36.117 150.03,183.227 181.2,221.677 l 18.31,0 0,-425.2 -76.73,0 0,244.81 -125.92,-159.939 -125.7,159.939 0,-244.81 -76.72,0"
         style="fill:#231f20;fill-opacity:1;fill-rule:evenodd;stroke:none"
         id="path4171"
         inkscape:connector-curvature="0" /><path
         d="m 3615.22,778 c -69.67,0 -135.44,39.426 -145.27,45.559 l 37.19,53.281 c 10.76,-6.313 58.05,-29.492 109.31,-29.492 27.83,0 60.34,13.761 60.34,52.574 0,34.668 -38.17,51.113 -78.5,68.531 -56.16,24.242 -119.8,51.667 -119.8,125.177 0,69.83 60.84,122.5 141.56,122.5 58.24,0 118.4,-27.72 127.94,-33.03 l -33.41,-60.51 c -9.43,5.33 -49.71,24.2 -95.16,24.2 -36.91,0 -62.71,-21.36 -62.71,-51.97 0,-33.94 37.18,-49.31 76.52,-65.6 53.99,-22.34 121.17,-50.169 121.17,-127.49 0,-59.605 -43.55,-123.73 -139.18,-123.73"
         style="fill:#231f20;fill-opacity:1;fill-rule:nonzero;stroke:none"
         id="path4173"
         inkscape:connector-curvature="0" /><path
         d="m 4467.72,784.582 0,179.379 -194.94,0 0,-179.379 -76.05,0 0,425.188 76.05,0 0,-183.68 194.94,0 0,183.68 76.06,0 0,-425.188 -76.06,0"
         style="fill:#231f20;fill-opacity:1;fill-rule:nonzero;stroke:none"
         id="path4175"
         inkscape:connector-curvature="0" /><path
         d="m 4640.97,784.68 0,425.2 260.72,0 0,-60.17 -185.14,0 0,-122.33 150.55,0 0,-61.607 -150.55,0 0,-119.793 189.59,0 0,-61.3 -265.17,0"
         style="fill:#231f20;fill-opacity:1;fill-rule:nonzero;stroke:none"
         id="path4177"
         inkscape:connector-curvature="0" /><path
         d="m 1835.59,207.621 c -25.85,57.34 -192,425.188 -192,425.188 l 80.9,0 c 0,0 115.49,-259.868 122.05,-274.93 l 3.66,-7.699 3.7,7.601 c 7.56,17.328 114.51,261.383 120.36,275.028 l 77.91,-0.02 c -6.35,-14.355 -155.29,-344.039 -191.8,-425.168 l -24.78,0"
         style="fill:#231f20;fill-opacity:1;fill-rule:evenodd;stroke:none"
         id="path4179"
         inkscape:connector-curvature="0" /><path
         d="m 3324.74,784.68 77.1406,0 0,425.195 -77.1406,0 0,-425.195 z"
         style="fill:#231f20;fill-opacity:1;fill-rule:evenodd;stroke:none"
         id="path4181"
         inkscape:connector-curvature="0" /><path
         d="m 2618.31,1006.64 74.94,0 c 46.55,0 75.41,29.08 75.41,72.41 0,47.91 -26.64,71.22 -86.39,71.22 l -63.96,0 0,-143.63 z m 173.74,-221.96 -86.15,161.718 -87.59,0 0,-161.718 -76,0 0,425.2 141.18,0 c 43.84,0 66.3,-3.11 85.71,-11.85 46.21,-20.81 73.78,-63.7 73.78,-114.7 0,-52.45 -27.77,-97.439 -70.78,-114.642 l -2.53,-1.016 0,-5.649 101.07,-177.343 -78.69,0"
         style="fill:#231f20;fill-opacity:1;fill-rule:nonzero;stroke:none"
         id="path4183"
         inkscape:connector-curvature="0" /><path
         d="m 3180.71,784.68 -168.1,196.125 0,-196.125 -76.3,0 0,425.2 76.3,0 0,-182.97 163.47,182.97 91.34,0 -179.1,-200.68 0,-4.26 187.22,-220.26 -94.83,0"
         style="fill:#231f20;fill-opacity:1;fill-rule:nonzero;stroke:none"
         id="path4185"
         inkscape:connector-curvature="0" /><path
         d="m 3996.72,778.809 c -53.54,0 -102.47,22.031 -137.81,62.011 -35.62,40.344 -55.23,96.496 -55.23,158.157 0,59.683 19.75,114.653 55.61,154.823 35.55,39.84 83.99,61.77 136.35,61.77 36.73,0 76.47,-7.19 101.21,-18.33 19.82,-8.92 28.75,-13.45 31.8,-15.17 l -32.34,-57.3 c -9.74,4.86 -47.08,19.91 -97.49,19.91 -73.39,0 -120.84,-56.73 -120.84,-144.51 0,-46.514 12.78,-85.428 36.93,-112.529 21.82,-24.446 51.78,-37.914 84.43,-37.914 59.36,0 106.59,27.894 106.59,27.894 l 32.81,-54.719 c -6.54,-5.547 -55.25,-44.093 -142.02,-44.093"
         style="fill:#231f20;fill-opacity:1;fill-rule:nonzero;stroke:none"
         id="path4187"
         inkscape:connector-curvature="0" /><path
         d="m 2226.57,912.887 141.67,0 -70.89,163.023 -70.78,-163.023 z m 277.18,-128.207 -80.39,0 -34.82,66 -182.44,0 -27.48,-66 -82.92,0 191.76,425.2 24.11,0 c 29.81,-66.13 192.18,-425.2 192.18,-425.2"
         style="fill:#231f20;fill-opacity:1;fill-rule:evenodd;stroke:none"
         id="path4189"
         inkscape:connector-curvature="0" /><path
         d="m 2098.79,207.621 77.1523,0 0,425.188 -77.1523,0 0,-425.188 z"
         style="fill:#231f20;fill-opacity:1;fill-rule:evenodd;stroke:none"
         id="path4191"
         inkscape:connector-curvature="0" /><path
         d="m 2274.28,207.621 0,425.188 260.74,0 0,-60.84 -185.18,0 0,-121.176 150.57,0 0,-61.613 -150.57,0 0,-120.239 189.6,0 0,-61.32 -265.16,0"
         style="fill:#231f20;fill-opacity:1;fill-rule:nonzero;stroke:none"
         id="path4193"
         inkscape:connector-curvature="0" /><path
         d="m 2693.37,429.551 74.97,0 c 46.51,0 75.4,29.101 75.4,72.426 0,47.925 -26.66,71.211 -86.41,71.211 l -63.96,0 0,-143.637 z m 173.76,-221.93 -86.18,161.699 -87.58,0 0,-161.699 -75.99,0 0,425.188 141.17,0 c 43.88,0 66.33,-3.125 85.75,-11.852 46.19,-20.809 73.78,-63.68 73.78,-114.695 0,-52.453 -27.81,-97.461 -70.79,-114.633 l -2.55,-1.027 0,-5.653 101.07,-177.328 -78.68,0"
         style="fill:#231f20;fill-opacity:1;fill-rule:nonzero;stroke:none"
         id="path4195"
         inkscape:connector-curvature="0" /><path
         d="m 3079.62,207.621 0,364.336 -119.78,0 0,60.852 315.25,0 0,-60.852 -119.79,0 0,-364.336 -75.68,0"
         style="fill:#231f20;fill-opacity:1;fill-rule:evenodd;stroke:none"
         id="path4197"
         inkscape:connector-curvature="0" /><path
         d="m 3335.83,207.621 0,425.192 260.74,0 0,-60.559 -185.15,0 0,-121.039 150.54,0 0,-61.625 -150.54,0 0,-120.281 189.6,0 0,-61.688 -265.19,0"
         style="fill:#231f20;fill-opacity:1;fill-rule:nonzero;stroke:none"
         id="path4199"
         inkscape:connector-curvature="0" /><path
         d="m 3682.57,207.621 0,425.188 73.55,0 0,-362.981 178.57,0 0,-62.207 -252.12,0"
         style="fill:#231f20;fill-opacity:1;fill-rule:evenodd;stroke:none"
         id="path4201"
         inkscape:connector-curvature="0" /><path
         d="m 5108.74,778 c -69.65,0 -135.48,39.426 -145.29,45.559 l 37.18,53.281 c 10.79,-6.313 58.07,-29.492 109.32,-29.492 27.83,0 60.31,13.761 60.31,52.574 0,34.668 -38.11,51.113 -78.47,68.508 -56.16,24.265 -119.8,51.71 -119.8,125.2 0,69.83 60.84,122.5 141.54,122.5 58.28,0 118.43,-27.72 127.96,-33.03 l -33.43,-60.51 c -9.4,5.33 -49.67,24.2 -95.12,24.2 -36.94,0 -62.73,-21.36 -62.73,-51.97 0,-33.94 37.16,-49.31 76.54,-65.6 53.96,-22.34 121.13,-50.169 121.13,-127.49 0,-59.605 -43.51,-123.73 -139.14,-123.73"
         style="fill:#231f20;fill-opacity:1;fill-rule:nonzero;stroke:none"
         id="path4203"
         inkscape:connector-curvature="0" /><path
         d="m 1209.76,1209.75 c -128.24,128.25 -305.405,207.57 -501.1,207.57 -195.687,0 -372.859,-79.32 -501.097,-207.57 l 0,-141.73 501.097,-501.098 501.1,501.098 0,141.73"
         style="fill:#fbc707;fill-opacity:1;fill-rule:nonzero;stroke:none"
         id="path4205"
         inkscape:connector-curvature="0" /><path
         d="M 1209.77,1209.75 708.668,708.652 207.566,1209.75 C 79.3203,1081.52 0,904.34 0,708.652 0,317.281 317.285,0 708.668,0 c 391.382,0 708.652,317.281 708.652,708.652 0,195.688 -79.32,372.848 -207.55,501.098"
         style="fill:#ec008c;fill-opacity:1;fill-rule:nonzero;stroke:none"
         id="path4207"
         inkscape:connector-curvature="0" /></g></g></svg>